<svg id="Layer_1" data-name="Layer 1" xmlns="http://www.w3.org/2000/svg" viewBox="0 0 273.36 374.42"><defs><style>.cls-1{fill:#fff;}.cls-1,.cls-2{stroke:#0e2f5f;stroke-miterlimit:10;stroke-width:24px;}.cls-2{fill:none;}.cls-3{fill:#ffcd24;}.cls-4{fill:#00dfdb;}.cls-5{fill:#f54b45;}</style></defs><title>gfg_logo_transparent</title><path class="cls-1" d="M232.21,114.66H79.6A48.38,48.38,0,0,0,31.22,163v131.3A48.38,48.38,0,0,0,79.6,342.72h39.09l1.64,31.82a7.08,7.08,0,0,0,13.07,3.39l22.08-35.21h76.73a48.38,48.38,0,0,0,48.38-48.38V163A48.38,48.38,0,0,0,232.21,114.66Z" transform="translate(-19.22 -18.84)"/><path class="cls-2" d="M82.46,87.23c-13.92-12.84-16.21-33-5.11-45s31.38-11.38,45.3,1.46,41.8,53.49,30.71,65.52S96.38,100.07,82.46,87.23Z" transform="translate(-19.22 -18.84)"/><path class="cls-2" d="M186.69,40.75C200.7,28,221,27.49,232,39.6s8.59,32.25-5.42,45-56.94,37-68,24.85S172.69,53.49,186.69,40.75Z" transform="translate(-19.22 -18.84)"/><rect class="cls-3" x="49.15" y="150.97" width="182.53" height="22.8" rx="9.03"/><rect class="cls-4" x="51.09" y="200.25" width="144.34" height="22.8" rx="9.03"/><rect class="cls-5" x="52.35" y="245.82" width="76.43" height="22.8" rx="9.03"/></svg>